<svg xmlns="http://www.w3.org/2000/svg" xmlns:xlink="http://www.w3.org/1999/xlink" width="500" zoomAndPan="magnify" viewBox="0 0 375 374.999991" height="500" preserveAspectRatio="xMidYMid meet" version="1.0"><defs><clipPath id="e8fd0a2008"><path d="M 7.734375 209 L 366.984375 209 L 366.984375 357.617188 L 7.734375 357.617188 Z M 7.734375 209 " clip-rule="nonzero"/></clipPath></defs><g clip-path="url(#e8fd0a2008)"><path fill="#ffffff" d="M 287.011719 209.648438 L 295.34375 240.289062 C 300.257812 258.449219 291.195312 277.378906 273.765625 284.941406 C 246.542969 296.6875 217.785156 302.753906 188.261719 302.753906 C 158.351562 302.753906 129.980469 296.6875 103.105469 284.941406 C 85.710938 277.378906 76.613281 258.449219 81.527344 240.289062 L 89.859375 209.265625 C 18.714844 222.128906 7.734375 248.621094 7.734375 267.546875 C 7.734375 292.890625 14.53125 357.617188 187.496094 357.617188 C 360.421875 357.617188 367.253906 292.890625 367.253906 267.546875 C 367.253906 248.621094 356.65625 222.128906 287.011719 209.648438 " fill-opacity="1" fill-rule="nonzero"/></g><path fill="#ffffff" d="M 111.816406 263.78125 C 159.855469 284.941406 215.484375 284.941406 263.9375 263.78125 C 270.765625 260.75 274.535156 253.535156 272.648438 246.355469 L 248.808594 156.664062 C 241.59375 129.054688 242.359375 99.914062 251.074219 73.042969 C 255.605469 59.03125 262.820312 45.785156 272.265625 34.421875 C 277.949219 27.621094 271.117188 17.792969 262.820312 20.441406 L 239.328125 28.003906 C 219.667969 34.421875 202.238281 45.785156 188.261719 60.914062 L 163.652344 87.789062 C 147.375 105.214844 135.660156 126.757812 129.59375 149.867188 L 103.871094 246.738281 C 101.570312 253.535156 105.371094 260.75 111.816406 263.78125 " fill-opacity="1" fill-rule="nonzero"/></svg>