<svg xmlns="http://www.w3.org/2000/svg" xmlns:xlink="http://www.w3.org/1999/xlink" width="500" zoomAndPan="magnify" viewBox="0 0 375 374.999991" height="500" preserveAspectRatio="xMidYMid meet" version="1.0"><defs><clipPath id="9e5e007ae2"><path d="M 76.21875 200.144531 L 298.769531 200.144531 L 298.769531 292.808594 L 76.21875 292.808594 Z M 76.21875 200.144531 " clip-rule="nonzero"/></clipPath></defs><path stroke-linecap="butt" transform="matrix(0.75, 0, 0, 0.75, 0.0000045, 0)" fill="none" stroke-linejoin="miter" d="M -0.000006 0 L 500.000059 0 L 500.000059 500.000065 L -0.000006 500.000065 Z M -0.000006 0 " stroke="#5271ff" stroke-width="70" stroke-opacity="1" stroke-miterlimit="4"/><g clip-path="url(#9e5e007ae2)"><path fill="#5271ff" d="M 249.101562 201.210938 L 254.257812 220.179688 C 257.300781 231.421875 251.6875 243.136719 240.902344 247.820312 C 224.046875 255.089844 206.246094 258.84375 187.96875 258.84375 C 169.457031 258.84375 151.890625 255.089844 135.257812 247.820312 C 124.488281 243.136719 118.855469 231.421875 121.898438 220.179688 L 127.054688 200.972656 C 83.015625 208.9375 76.21875 225.335938 76.21875 237.050781 C 76.21875 252.738281 80.429688 292.808594 187.496094 292.808594 C 294.542969 292.808594 298.769531 252.738281 298.769531 237.050781 C 298.769531 225.335938 292.210938 208.9375 249.101562 201.210938 " fill-opacity="1" fill-rule="nonzero"/></g><path fill="#5271ff" d="M 140.648438 234.71875 C 170.386719 247.820312 204.824219 247.820312 234.816406 234.71875 C 239.042969 232.84375 241.375 228.378906 240.207031 223.933594 L 225.449219 168.414062 C 220.984375 151.324219 221.457031 133.285156 226.851562 116.648438 C 229.660156 107.972656 234.125 99.773438 239.972656 92.742188 C 243.488281 88.53125 239.261719 82.449219 234.125 84.085938 L 219.582031 88.769531 C 207.410156 92.742188 196.625 99.773438 187.96875 109.140625 L 172.738281 125.777344 C 162.660156 136.5625 155.410156 149.898438 151.65625 164.203125 L 135.730469 224.167969 C 134.308594 228.378906 136.660156 232.84375 140.648438 234.71875 " fill-opacity="1" fill-rule="nonzero"/></svg>