<svg xmlns="http://www.w3.org/2000/svg" xmlns:xlink="http://www.w3.org/1999/xlink" width="500" zoomAndPan="magnify" viewBox="0 0 375 374.999991" height="500" preserveAspectRatio="xMidYMid meet" version="1.0"><defs><clipPath id="611e4675b5"><path d="M 117 19.335938 L 355.335938 19.335938 L 355.335938 258 L 117 258 Z M 117 19.335938 " clip-rule="nonzero"/></clipPath><clipPath id="3ccd513499"><path d="M 19.335938 306 L 69 306 L 69 355.335938 L 19.335938 355.335938 Z M 19.335938 306 " clip-rule="nonzero"/></clipPath></defs><path fill="#ffffff" d="M 69.785156 201.730469 L 130.582031 244.417969 L 173.269531 305.214844 L 156.453125 322.03125 L 52.96875 218.546875 Z M 69.785156 201.730469 " fill-opacity="1" fill-rule="nonzero"/><g clip-path="url(#611e4675b5)"><path fill="#ffffff" d="M 139.636719 235.363281 L 153.867188 257.351562 L 329.792969 96.949219 L 355.664062 19.335938 L 278.050781 45.207031 L 117.648438 221.132812 Z M 139.636719 235.363281 " fill-opacity="1" fill-rule="nonzero"/></g><path fill="#ffffff" d="M 43.914062 347.902344 L 27.097656 331.085938 L 95.65625 244.417969 L 130.582031 279.34375 Z M 43.914062 347.902344 " fill-opacity="1" fill-rule="nonzero"/><g clip-path="url(#3ccd513499)"><path fill="#ffffff" d="M 68.492188 331.085938 C 68.492188 331.890625 68.453125 332.695312 68.375 333.496094 C 68.292969 334.296875 68.175781 335.089844 68.019531 335.882812 C 67.863281 336.671875 67.667969 337.449219 67.433594 338.222656 C 67.199219 338.992188 66.929688 339.746094 66.621094 340.492188 C 66.3125 341.234375 65.96875 341.960938 65.589844 342.671875 C 65.210938 343.382812 64.796875 344.070312 64.347656 344.742188 C 63.902344 345.410156 63.421875 346.054688 62.914062 346.679688 C 62.402344 347.300781 61.863281 347.894531 61.292969 348.464844 C 60.722656 349.035156 60.128906 349.574219 59.503906 350.085938 C 58.882812 350.597656 58.238281 351.074219 57.570312 351.523438 C 56.898438 351.96875 56.210938 352.382812 55.5 352.761719 C 54.789062 353.140625 54.0625 353.484375 53.320312 353.792969 C 52.574219 354.101562 51.820312 354.371094 51.046875 354.605469 C 50.277344 354.839844 49.5 355.035156 48.707031 355.191406 C 47.917969 355.347656 47.125 355.464844 46.324219 355.546875 C 45.523438 355.625 44.71875 355.664062 43.914062 355.664062 C 43.109375 355.664062 42.304688 355.625 41.503906 355.546875 C 40.703125 355.464844 39.910156 355.347656 39.117188 355.191406 C 38.328125 355.035156 37.550781 354.839844 36.777344 354.605469 C 36.007812 354.371094 35.25 354.101562 34.507812 353.792969 C 33.765625 353.484375 33.039062 353.140625 32.328125 352.761719 C 31.617188 352.382812 30.929688 351.96875 30.257812 351.523438 C 29.589844 351.074219 28.945312 350.597656 28.320312 350.085938 C 27.699219 349.574219 27.105469 349.035156 26.535156 348.464844 C 25.964844 347.894531 25.425781 347.300781 24.914062 346.679688 C 24.402344 346.054688 23.925781 345.410156 23.476562 344.742188 C 23.03125 344.070312 22.617188 343.382812 22.238281 342.671875 C 21.859375 341.960938 21.515625 341.234375 21.207031 340.492188 C 20.898438 339.746094 20.628906 338.992188 20.394531 338.222656 C 20.160156 337.449219 19.964844 336.671875 19.808594 335.882812 C 19.652344 335.089844 19.53125 334.296875 19.453125 333.496094 C 19.375 332.695312 19.335938 331.890625 19.335938 331.085938 C 19.335938 330.28125 19.375 329.476562 19.453125 328.675781 C 19.53125 327.875 19.652344 327.082031 19.808594 326.292969 C 19.964844 325.5 20.160156 324.722656 20.394531 323.953125 C 20.628906 323.179688 20.898438 322.425781 21.207031 321.679688 C 21.515625 320.9375 21.859375 320.210938 22.238281 319.5 C 22.617188 318.789062 23.03125 318.101562 23.476562 317.429688 C 23.925781 316.761719 24.402344 316.117188 24.914062 315.496094 C 25.425781 314.871094 25.964844 314.277344 26.535156 313.707031 C 27.105469 313.136719 27.699219 312.597656 28.320312 312.085938 C 28.945312 311.578125 29.589844 311.097656 30.257812 310.652344 C 30.929688 310.203125 31.617188 309.789062 32.328125 309.410156 C 33.039062 309.03125 33.765625 308.6875 34.507812 308.378906 C 35.25 308.070312 36.007812 307.800781 36.777344 307.566406 C 37.550781 307.332031 38.328125 307.136719 39.117188 306.980469 C 39.910156 306.824219 40.703125 306.707031 41.503906 306.625 C 42.304688 306.546875 43.109375 306.507812 43.914062 306.507812 C 44.71875 306.507812 45.523438 306.546875 46.324219 306.625 C 47.125 306.707031 47.917969 306.824219 48.707031 306.980469 C 49.5 307.136719 50.277344 307.332031 51.046875 307.566406 C 51.820312 307.800781 52.574219 308.070312 53.320312 308.378906 C 54.0625 308.6875 54.789062 309.03125 55.5 309.410156 C 56.210938 309.789062 56.898438 310.203125 57.570312 310.652344 C 58.238281 311.097656 58.882812 311.578125 59.503906 312.085938 C 60.128906 312.597656 60.722656 313.136719 61.292969 313.707031 C 61.863281 314.277344 62.402344 314.871094 62.914062 315.496094 C 63.421875 316.117188 63.902344 316.761719 64.347656 317.429688 C 64.796875 318.101562 65.210938 318.789062 65.589844 319.5 C 65.96875 320.210938 66.3125 320.9375 66.621094 321.679688 C 66.929688 322.425781 67.199219 323.179688 67.433594 323.953125 C 67.667969 324.722656 67.863281 325.5 68.019531 326.292969 C 68.175781 327.082031 68.292969 327.875 68.375 328.675781 C 68.453125 329.476562 68.492188 330.28125 68.492188 331.085938 Z M 68.492188 331.085938 " fill-opacity="1" fill-rule="nonzero"/></g></svg>