<svg xmlns="http://www.w3.org/2000/svg" xmlns:xlink="http://www.w3.org/1999/xlink" width="500" zoomAndPan="magnify" viewBox="0 0 375 374.999991" height="500" preserveAspectRatio="xMidYMid meet" version="1.0"><defs><clipPath id="3649aa5e16"><path d="M 46 12.164062 L 327 12.164062 L 327 296 L 46 296 Z M 46 12.164062 " clip-rule="nonzero"/></clipPath></defs><g clip-path="url(#3649aa5e16)"><path fill="#ffffff" d="M 180.839844 12.492188 C 126.503906 12.164062 72.683594 34.285156 50.546875 87.515625 C 40.996094 110.488281 50.203125 153.148438 56.484375 169.367188 C 66.328125 175.65625 68.976562 187.863281 72.355469 196 C 77.023438 207.257812 63.203125 232.011719 63.476562 241.613281 C 63.828125 254.042969 65.6875 260.910156 73.464844 261.8125 C 81.335938 262.730469 89.273438 261.894531 90.722656 258.761719 C 92.054688 255.882812 126.804688 255.300781 126.234375 271.46875 C 122.429688 278.476562 123.929688 283.519531 131.023438 283.492188 C 132.859375 283.488281 133.191406 279.257812 133.839844 274.632812 C 134.835938 267.519531 139.925781 268.492188 140.078125 270.328125 C 140.117188 270.222656 141.261719 275.234375 140.808594 279.667969 C 140.566406 282.015625 138.210938 283.769531 138.761719 286.457031 C 137.761719 290.65625 142.375 289.441406 145.261719 291.125 C 149.121094 293.371094 150.957031 295.933594 155.40625 295.210938 C 157.40625 294.890625 156.382812 285.6875 157.617188 282.136719 C 158.777344 278.792969 162.664062 278.6875 162.996094 282.859375 C 163.265625 286.273438 162.21875 288.761719 162.90625 290.460938 C 165.964844 298.003906 173.914062 294.824219 176.417969 291.824219 C 177.84375 290.117188 178.050781 276.054688 178.890625 274.910156 C 180.433594 272.800781 182.792969 286.109375 182.335938 283.820312 C 181.058594 277.414062 185.667969 288.046875 185.667969 292.945312 C 185.667969 297.589844 203.484375 295.871094 199.621094 287.101562 C 198.035156 283.507812 203.777344 288.027344 203.597656 286.671875 C 203.203125 283.699219 203.769531 290.460938 209.304688 293 C 220.34375 298.0625 217.03125 284.011719 217.574219 278.40625 C 218.429688 269.5625 226.429688 265.285156 226.453125 279.683594 C 226.480469 296.882812 244.949219 286.789062 242.933594 277.796875 C 242.234375 274.671875 240.246094 271.121094 241.65625 268.25 C 245.75 259.921875 256.566406 255.738281 265.742188 254.324219 C 273.445312 253.132812 281.515625 262.621094 288.601562 259.371094 C 294.707031 256.570312 303.238281 254 301.007812 247.667969 C 290.554688 218.039062 291.480469 208.210938 295.980469 194.4375 C 302.453125 182.609375 299.851562 175.402344 310.132812 169.363281 C 334.023438 155.34375 325.910156 100.648438 322.175781 87.515625 C 304.636719 42.082031 242.417969 12.867188 180.835938 12.492188 Z M 118.304688 149.445312 C 128.375 149.542969 138.949219 150.914062 147.824219 156.046875 C 172.535156 170.347656 171.242188 177.492188 160.476562 189.621094 C 147.476562 204.269531 126.871094 208.429688 105.933594 202.328125 C 78.472656 194.324219 81.597656 150.890625 108.484375 149.667969 C 111.660156 149.523438 114.949219 149.414062 118.308594 149.445312 Z M 248.429688 149.421875 C 251.871094 149.390625 255.40625 149.5 259.03125 149.644531 C 285.925781 150.71875 288.988281 194.246094 261.527344 202.25 C 240.585938 208.351562 220.035156 204.242188 207.039062 189.597656 C 196.273438 177.46875 194.980469 170.265625 219.6875 155.96875 C 228.566406 150.832031 238.109375 149.519531 248.433594 149.421875 Z M 185.671875 195.613281 C 188.390625 195.671875 190.027344 195.46875 191.5 198.054688 C 191.371094 197.671875 205.972656 222.640625 207.203125 225.855469 C 211.792969 237.859375 198.140625 235.074219 195.773438 231.960938 C 192.890625 227.824219 193.0625 223.015625 185.671875 222.972656 C 178.285156 222.925781 178.8125 229.292969 175.574219 232.183594 C 173.203125 235.296875 159.554688 238.082031 164.140625 226.078125 C 165.371094 222.863281 179.972656 197.894531 179.84375 198.277344 C 181.644531 195.820312 182.957031 195.554688 185.671875 195.613281 Z M 185.671875 195.613281 " fill-opacity="1" fill-rule="nonzero"/></g><path fill="#ffffff" d="M 118.945312 289.835938 C 116.636719 285.175781 116.851562 276.9375 115.042969 272.492188 C 111.417969 263.59375 103.433594 257.050781 104.675781 276.519531 C 105.121094 283.464844 106.144531 288.664062 108.085938 294.925781 C 109.746094 300.28125 109.449219 309.195312 109.433594 314.570312 C 109.371094 336.378906 113.292969 340.332031 128.457031 340.886719 L 150.019531 349.132812 C 170.566406 353.773438 169.160156 362.824219 185.6875 362.765625 C 202.210938 362.707031 200.859375 357.835938 209 356.109375 C 216.683594 355.667969 224.03125 352.722656 228.34375 344.691406 L 236.269531 335.496094 C 240.125 331.160156 245.667969 330.195312 251.171875 329.15625 C 255.726562 325.484375 263.625 324.488281 260.367188 314.566406 C 258.085938 307.40625 258.632812 292.699219 258.78125 279.054688 C 258.957031 262.960938 250.65625 265.410156 248.320312 276.515625 L 244.511719 294.589844 C 242.054688 300.09375 238.410156 301.242188 233.414062 297.445312 C 225.757812 294.238281 218.6875 292.394531 218.511719 306.640625 L 213.4375 306.007812 C 211.015625 306.425781 210.175781 301.839844 207.75 301.414062 C 200.933594 298.992188 200.613281 303.0625 199.488281 306.324219 L 192.828125 306.640625 C 191.242188 298.992188 190.273438 301.980469 188.070312 301.972656 C 185.6875 301.964844 186.480469 304.511719 185.6875 305.371094 L 181.414062 305.691406 C 178.628906 301.195312 170.386719 294.984375 165.875 304.738281 L 160.800781 305.371094 C 158.816406 299.8125 151.09375 296.976562 150.019531 306.957031 L 143.996094 306.640625 C 142.222656 304.554688 143.421875 300.195312 142.390625 299.03125 C 139.652344 295.925781 134.632812 297.484375 130.996094 296.175781 C 127.300781 302.191406 125.550781 296.441406 118.945312 289.835938 Z M 118.945312 289.835938 " fill-opacity="1" fill-rule="nonzero"/></svg>