<svg xmlns="http://www.w3.org/2000/svg" xmlns:xlink="http://www.w3.org/1999/xlink" width="500" zoomAndPan="magnify" viewBox="0 0 375 374.999991" height="500" preserveAspectRatio="xMidYMid meet" version="1.0"><defs><clipPath id="a55fdbfe20"><path d="M 97 75.507812 L 277 75.507812 L 277 257 L 97 257 Z M 97 75.507812 " clip-rule="nonzero"/></clipPath><clipPath id="8c7a02ca11"><path d="M 134 236 L 235 236 L 235 299.757812 L 134 299.757812 Z M 134 236 " clip-rule="nonzero"/></clipPath></defs><path stroke-linecap="butt" transform="matrix(0.75, 0, 0, 0.75, 0.0000045, 0)" fill="none" stroke-linejoin="miter" d="M -0.000006 0 L 500.000059 0 L 500.000059 500.000065 L -0.000006 500.000065 Z M -0.000006 0 " stroke="#8c52ff" stroke-width="70" stroke-opacity="1" stroke-miterlimit="4"/><g clip-path="url(#a55fdbfe20)"><path fill="#8c52ff" d="M 183.246094 75.714844 C 148.539062 75.503906 114.160156 89.636719 100.019531 123.636719 C 93.921875 138.308594 99.800781 165.558594 103.8125 175.917969 C 110.101562 179.933594 111.792969 187.730469 113.949219 192.929688 C 116.933594 200.121094 108.105469 215.929688 108.28125 222.066406 C 108.503906 230.003906 109.691406 234.390625 114.660156 234.96875 C 119.6875 235.550781 124.757812 235.019531 125.683594 233.015625 C 126.535156 231.179688 148.730469 230.808594 148.367188 241.132812 C 145.9375 245.609375 146.894531 248.832031 151.425781 248.816406 C 152.597656 248.808594 152.808594 246.109375 153.222656 243.15625 C 153.859375 238.609375 157.109375 239.234375 157.207031 240.40625 C 157.234375 240.335938 157.964844 243.539062 157.675781 246.371094 C 157.519531 247.871094 156.015625 248.992188 156.367188 250.707031 C 155.730469 253.390625 158.675781 252.613281 160.519531 253.6875 C 162.984375 255.125 164.15625 256.757812 167 256.300781 C 168.277344 256.09375 167.621094 250.214844 168.410156 247.949219 C 169.152344 245.8125 171.636719 245.746094 171.847656 248.410156 C 172.019531 250.589844 171.347656 252.179688 171.789062 253.265625 C 173.746094 258.082031 178.820312 256.054688 180.421875 254.136719 C 181.332031 253.042969 181.460938 244.0625 182 243.332031 C 182.984375 241.984375 184.492188 250.484375 184.203125 249.023438 C 183.386719 244.933594 186.328125 251.722656 186.328125 254.851562 C 186.328125 257.820312 197.707031 256.71875 195.238281 251.121094 C 194.226562 248.824219 197.894531 251.710938 197.78125 250.847656 C 197.53125 248.945312 197.890625 253.265625 201.425781 254.886719 C 208.476562 258.121094 206.363281 249.144531 206.707031 245.566406 C 207.253906 239.917969 212.363281 237.183594 212.378906 246.378906 C 212.398438 257.367188 224.195312 250.917969 222.90625 245.175781 C 222.460938 243.179688 221.191406 240.914062 222.089844 239.078125 C 224.707031 233.757812 231.613281 231.085938 237.472656 230.183594 C 242.394531 229.421875 247.550781 235.484375 252.078125 233.40625 C 255.976562 231.617188 261.425781 229.976562 260 225.933594 C 253.324219 207.007812 253.914062 200.730469 256.789062 191.929688 C 260.921875 184.375 259.261719 179.769531 265.828125 175.917969 C 281.089844 166.960938 275.90625 132.023438 273.519531 123.636719 C 262.316406 94.617188 222.574219 75.957031 183.242188 75.714844 Z M 143.300781 163.191406 C 149.734375 163.253906 156.488281 164.128906 162.15625 167.410156 C 177.941406 176.542969 177.113281 181.109375 170.238281 188.855469 C 161.933594 198.210938 148.773438 200.871094 135.398438 196.972656 C 117.859375 191.859375 119.855469 164.117188 137.027344 163.335938 C 139.058594 163.242188 141.15625 163.171875 143.300781 163.195312 Z M 226.417969 163.179688 C 228.617188 163.15625 230.871094 163.226562 233.1875 163.320312 C 250.367188 164.007812 252.324219 191.808594 234.78125 196.921875 C 221.40625 200.820312 208.28125 198.195312 199.976562 188.839844 C 193.101562 181.09375 192.277344 176.492188 208.058594 167.359375 C 213.730469 164.078125 219.824219 163.238281 226.417969 163.179688 Z M 186.332031 192.683594 C 188.066406 192.71875 189.113281 192.589844 190.054688 194.242188 C 189.972656 193.996094 199.300781 209.945312 200.082031 212 C 203.015625 219.667969 194.296875 217.886719 192.78125 215.898438 C 190.941406 213.257812 191.050781 210.183594 186.332031 210.15625 C 181.613281 210.128906 181.949219 214.195312 179.878906 216.039062 C 178.367188 218.027344 169.648438 219.808594 172.578125 212.140625 C 173.363281 210.089844 182.691406 194.136719 182.609375 194.382812 C 183.757812 192.8125 184.597656 192.644531 186.332031 192.683594 Z M 186.332031 192.683594 " fill-opacity="1" fill-rule="nonzero"/></g><g clip-path="url(#8c7a02ca11)"><path fill="#8c52ff" d="M 143.710938 252.867188 C 142.238281 249.890625 142.371094 244.628906 141.21875 241.789062 C 138.902344 236.105469 133.804688 231.925781 134.597656 244.359375 C 134.878906 248.796875 135.535156 252.117188 136.773438 256.117188 C 137.835938 259.535156 137.644531 265.230469 137.632812 268.664062 C 137.59375 282.59375 140.101562 285.121094 149.785156 285.472656 L 163.558594 290.738281 C 176.683594 293.703125 175.785156 299.488281 186.339844 299.449219 C 196.894531 299.410156 196.03125 296.300781 201.230469 295.195312 C 206.140625 294.914062 210.832031 293.035156 213.585938 287.90625 L 218.648438 282.03125 C 221.113281 279.261719 224.652344 278.644531 228.167969 277.980469 C 231.078125 275.636719 236.121094 275 234.042969 268.664062 C 232.585938 264.089844 232.933594 254.695312 233.03125 245.980469 C 233.140625 235.699219 227.839844 237.265625 226.347656 244.359375 L 223.914062 255.902344 C 222.34375 259.417969 220.015625 260.152344 216.828125 257.726562 C 211.9375 255.675781 207.417969 254.5 207.308594 263.601562 L 204.066406 263.195312 C 202.519531 263.460938 201.980469 260.535156 200.433594 260.261719 C 196.078125 258.714844 195.875 261.3125 195.15625 263.398438 L 190.902344 263.601562 C 189.890625 258.714844 189.273438 260.621094 187.863281 260.617188 C 186.339844 260.613281 186.847656 262.238281 186.339844 262.789062 L 183.609375 262.992188 C 181.832031 260.121094 176.566406 256.15625 173.6875 262.382812 L 170.445312 262.789062 C 169.179688 259.238281 164.246094 257.425781 163.558594 263.800781 L 159.710938 263.601562 C 158.578125 262.265625 159.34375 259.484375 158.6875 258.738281 C 156.9375 256.757812 153.730469 257.75 151.40625 256.917969 C 149.046875 260.757812 147.929688 257.085938 143.710938 252.867188 Z M 143.710938 252.867188 " fill-opacity="1" fill-rule="nonzero"/></g></svg>