<svg xmlns="http://www.w3.org/2000/svg" xmlns:xlink="http://www.w3.org/1999/xlink" width="500" zoomAndPan="magnify" viewBox="0 0 375 374.999991" height="500" preserveAspectRatio="xMidYMid meet" version="1.0"><defs><clipPath id="571e71efa8"><path d="M 31 55 L 320 55 L 320 344 L 31 344 Z M 31 55 " clip-rule="nonzero"/></clipPath><clipPath id="3efd527fdc"><path d="M -70.433594 187.496094 L 187.308594 -70.242188 L 445.046875 187.496094 L 187.308594 445.238281 Z M -70.433594 187.496094 " clip-rule="nonzero"/></clipPath><clipPath id="117d02ae26"><path d="M -70.433594 187.496094 L 187.308594 -70.242188 L 445.046875 187.496094 L 187.308594 445.238281 Z M -70.433594 187.496094 " clip-rule="nonzero"/></clipPath></defs><g clip-path="url(#571e71efa8)"><g clip-path="url(#3efd527fdc)"><g clip-path="url(#117d02ae26)"><path fill="#ffffff" d="M 306.808594 55.3125 L 250.480469 63.359375 C 246.234375 63.9375 242.660156 66.929688 241.304688 71.019531 C 239.9375 75.125 241.003906 79.628906 244.042969 82.667969 L 260.136719 98.761719 L 243.542969 115.355469 C 199.207031 76.039062 139.359375 59.511719 80.828125 71.539062 C 78.636719 71.984375 76.644531 73.050781 75.066406 74.628906 C 70.625 79.070312 63.414062 79.066406 58.972656 74.625 C 54.527344 70.183594 47.320312 70.183594 42.878906 74.625 C 38.433594 79.066406 38.433594 86.277344 42.878906 90.71875 C 46.691406 94.53125 51.292969 96.816406 56.058594 98.394531 L 63.449219 247.179688 L 34.835938 275.792969 C 31.855469 278.769531 30.777344 283.125 31.984375 287.132812 C 33.1875 291.140625 36.535156 294.167969 40.644531 294.988281 L 73.441406 301.554688 L 80.007812 334.351562 C 80.828125 338.457031 83.847656 341.804688 87.875 343.023438 C 91.867188 344.21875 96.226562 343.140625 99.203125 340.160156 L 127.816406 311.546875 L 276.597656 318.933594 C 278.175781 323.699219 280.460938 328.304688 284.277344 332.117188 C 288.71875 336.558594 295.925781 336.558594 300.371094 332.117188 C 304.8125 327.675781 304.8125 320.464844 300.371094 316.023438 C 295.945312 311.597656 295.925781 304.371094 300.371094 299.929688 C 301.945312 298.351562 303.023438 296.371094 303.457031 294.167969 C 315.480469 235.667969 298.933594 175.800781 259.640625 131.453125 L 276.234375 114.859375 L 292.320312 130.949219 C 295.363281 133.992188 299.871094 135.054688 303.960938 133.703125 C 305.664062 133.121094 307.195312 132.171875 308.417969 130.949219 C 310.121094 129.246094 311.28125 126.992188 311.636719 124.511719 L 319.679688 68.1875 C 320.195312 64.644531 318.988281 61.058594 316.464844 58.53125 C 313.9375 56.003906 310.347656 54.796875 306.808594 55.3125 Z M 280.609375 288.796875 C 279.03125 291.078125 278.175781 293.636719 277.210938 296.148438 L 134.722656 289.097656 L 134.726562 256.367188 L 227.664062 163.429688 C 257.804688 197.078125 277.308594 240.527344 280.609375 288.796875 Z M 118.628906 240.269531 L 85.894531 240.269531 L 78.8125 97.78125 C 81.324219 96.816406 83.898438 95.945312 86.183594 94.402344 C 134.464844 97.683594 177.898438 117.171875 211.566406 147.332031 Z M 118.628906 240.269531 " fill-opacity="1" fill-rule="nonzero"/></g></g></g></svg>