<svg xmlns="http://www.w3.org/2000/svg" xmlns:xlink="http://www.w3.org/1999/xlink" width="500" zoomAndPan="magnify" viewBox="0 0 375 374.999991" height="500" preserveAspectRatio="xMidYMid meet" version="1.0"><defs><clipPath id="b87459a0e5"><path d="M 96 110 L 265 110 L 265 279 L 96 279 Z M 96 110 " clip-rule="nonzero"/></clipPath><clipPath id="41936092bb"><path d="M 37.503906 187.542969 L 187.585938 37.460938 L 337.667969 187.542969 L 187.585938 337.628906 Z M 37.503906 187.542969 " clip-rule="nonzero"/></clipPath><clipPath id="87b4a233d3"><path d="M 37.503906 187.542969 L 187.585938 37.460938 L 337.667969 187.542969 L 187.585938 337.628906 Z M 37.503906 187.542969 " clip-rule="nonzero"/></clipPath></defs><path stroke-linecap="butt" transform="matrix(0.75, 0, 0, 0.75, 0.0000045, 0)" fill="none" stroke-linejoin="miter" d="M -0.000006 0 L 500.000059 0 L 500.000059 500.000065 L -0.000006 500.000065 Z M -0.000006 0 " stroke="#00bf63" stroke-width="70" stroke-opacity="1" stroke-miterlimit="4"/><g clip-path="url(#b87459a0e5)"><g clip-path="url(#41936092bb)"><g clip-path="url(#87b4a233d3)"><path fill="#00bf63" d="M 256.804688 110.703125 L 224.058594 115.378906 C 221.589844 115.714844 219.511719 117.457031 218.726562 119.832031 C 217.929688 122.21875 218.546875 124.839844 220.316406 126.605469 L 229.671875 135.960938 L 220.027344 145.605469 C 194.253906 122.75 159.460938 113.144531 125.433594 120.132812 C 124.160156 120.394531 123.003906 121.015625 122.085938 121.929688 C 119.503906 124.511719 115.3125 124.511719 112.730469 121.929688 C 110.148438 119.347656 105.957031 119.347656 103.371094 121.929688 C 100.789062 124.511719 100.789062 128.703125 103.371094 131.285156 C 105.589844 133.5 108.265625 134.828125 111.035156 135.746094 L 115.332031 222.238281 L 98.699219 238.871094 C 96.964844 240.605469 96.339844 243.136719 97.039062 245.464844 C 97.738281 247.796875 99.6875 249.554688 102.074219 250.03125 L 121.140625 253.847656 L 124.957031 272.914062 C 125.433594 275.300781 127.191406 277.246094 129.53125 277.957031 C 131.851562 278.652344 134.386719 278.023438 136.117188 276.292969 L 152.75 259.660156 L 239.242188 263.953125 C 240.160156 266.722656 241.488281 269.398438 243.707031 271.617188 C 246.285156 274.199219 250.476562 274.199219 253.058594 271.617188 C 255.644531 269.035156 255.644531 264.84375 253.0625 262.261719 C 250.488281 259.6875 250.476562 255.488281 253.058594 252.902344 C 253.976562 251.988281 254.601562 250.835938 254.855469 249.554688 C 261.84375 215.546875 252.226562 180.746094 229.382812 154.964844 L 239.027344 145.320312 L 248.382812 154.671875 C 250.152344 156.441406 252.769531 157.058594 255.148438 156.273438 C 256.136719 155.933594 257.027344 155.382812 257.738281 154.671875 C 258.730469 153.679688 259.402344 152.371094 259.609375 150.929688 L 264.285156 118.1875 C 264.585938 116.128906 263.886719 114.042969 262.417969 112.574219 C 260.949219 111.105469 258.859375 110.402344 256.804688 110.703125 Z M 241.574219 246.433594 C 240.65625 247.757812 240.160156 249.246094 239.597656 250.707031 L 156.765625 246.609375 L 156.765625 227.582031 L 210.792969 173.554688 C 228.316406 193.113281 239.65625 218.375 241.574219 246.433594 Z M 147.410156 218.222656 L 128.378906 218.222656 L 124.261719 135.390625 C 125.722656 134.828125 127.21875 134.324219 128.546875 133.425781 C 156.617188 135.335938 181.867188 146.664062 201.4375 164.195312 Z M 147.410156 218.222656 " fill-opacity="1" fill-rule="nonzero"/></g></g></g></svg>